<svg width="92" height="36" viewBox="0 0 92 36" fill="none" xmlns="http://www.w3.org/2000/svg">
  <path d="M78.867 12.5644C80.1005 10.6575 81.8871 7.8184 83.1206 6.08102C83.3758 5.69964 79.3349 6.54714 77.8461 7.01327C76.3573 7.4794 74.9961 7.86077 73.6775 8.1574C72.3589 8.45403 71.1253 8.87778 70.1044 9.04728C69.041 9.1744 68.2328 9.25916 67.5522 9.21678C67.0418 9.21678 66.7015 9.04728 66.4888 8.70828C66.2761 8.36927 66.191 7.9879 66.191 7.47939C66.191 6.97089 66.3612 6.25051 66.5739 5.69964C66.7866 5.14876 67.0418 4.59788 67.3821 4.047C67.7224 3.5385 68.0627 3.07237 68.488 2.64862C68.8709 2.22487 69.2962 1.97062 69.7641 1.80112C70.5298 1.54687 71.5507 1.46212 72.8693 1.58924C74.1879 1.67399 75.5916 1.75874 77.0804 1.88587C78.5692 2.013 80.058 2.05537 81.5468 2.05537C83.0355 2.05537 84.6945 1.67399 85.4176 1.33499C86.1407 0.995991 86.6512 0.699364 87.4168 0.826489C88.1825 0.953615 88.8631 1.25024 89.5011 1.71637C90.1392 2.1825 90.6071 2.77575 90.9474 3.49613C91.2877 4.21651 91.2877 4.93688 90.9899 5.61489C90.8198 5.95389 90.5645 6.58952 89.8414 7.26752C86.8213 10.0219 83.5885 14.2171 81.5468 16.8019C77.0379 22.5226 76.1021 24.7261 75.0387 26.3787C73.635 28.667 70.8701 34.2605 70.4022 34.7267C69.8067 35.3623 69.1686 35.2352 68.7007 35.0657C68.2328 34.9385 67.6373 34.1758 67.8925 33.3283C68.0627 32.8198 72.9118 23.1158 73.9752 21.1666C74.826 19.5987 77.3782 14.8527 78.867 12.5644Z" fill="#FDB933"/>
  <path d="M48.113 27.6076C48.113 26.294 48.3257 24.8109 48.751 23.2006C49.1764 21.5904 49.7294 20.0649 50.4525 18.5817C50.8353 17.7766 51.2182 17.0562 51.8987 16.124C52.5793 15.1493 53.4726 14.3442 54.3659 13.7509C55.3017 13.1577 56.8755 12.7763 57.8113 12.6916C58.8747 12.6068 59.6829 12.9882 60.1508 13.7933C60.6187 14.6408 60.874 15.7002 60.8314 17.0562C60.7889 18.3698 60.5337 19.853 60.0658 21.4632C59.5979 23.0735 58.9173 24.599 58.0665 26.0398C58.0665 26.0398 57.1307 27.4805 55.9822 28.7094C55.0039 29.7264 54.5785 30.1078 53.7278 30.6587C52.8771 31.2095 51.4734 31.718 50.7502 31.8028C50.0271 31.8452 49.1339 31.6333 48.7085 30.7858C48.3257 30.023 48.113 28.9636 48.113 27.6076ZM44.4548 18.2427C43.6466 19.514 43.0086 20.87 42.4981 22.226C41.9877 23.6244 41.6899 24.938 41.5623 26.2093C41.4347 27.4805 41.4773 28.7094 41.775 29.8535C42.0302 30.9977 42.5407 31.9723 43.2638 32.7774C43.9869 33.5825 44.9653 34.2182 46.1563 34.5995C47.3473 34.9809 50.4525 35.4471 53.0898 34.5148C55.727 33.5825 58.024 31.1248 59.2576 29.4721C60.5337 27.8195 61.512 26.0821 62.2777 24.26C63.0433 22.4379 63.5538 20.6581 63.809 18.836C64.0642 17.0138 64.0217 15.4036 63.7239 14.0052C63.3836 12.5644 62.7881 11.4203 61.8523 10.5728C60.959 9.7253 59.6829 9.30155 58.1091 9.34393C55.9397 9.3863 53.898 9.93718 51.9838 10.9966C50.1122 12.0136 48.4107 13.3272 46.9645 14.9375C45.5182 16.463 45.3906 16.8867 44.4548 18.2427Z" fill="#FDB933"/>
  <path d="M41.3496 3.96227C41.0944 3.49614 40.7541 3.07239 40.2862 2.64864C39.8608 2.22489 39.3504 1.88589 38.7974 1.54688C38.2444 1.25026 37.6915 1.03838 37.181 0.911256C36.6706 0.78413 36.2027 0.784129 35.7773 0.86888C35.352 0.996005 35.0542 1.25026 34.8841 1.67401C34.7564 2.01301 34.4161 2.73339 33.9057 3.83514C33.3953 4.97927 32.7998 6.33528 32.1617 7.94554C31.4811 9.5558 30.8005 11.3779 30.0774 13.3272C29.3543 15.3188 28.5036 17.7766 27.9506 19.7258C27.3551 21.7175 26.8872 23.6244 26.5469 25.4889C26.2066 27.3534 25.9514 29.1331 26.079 30.5315C26.164 31.6333 26.6319 32.9045 27.27 33.7097C28.1633 34.8538 29.6095 35.0233 30.5879 35.108C31.396 35.1504 33.14 34.8962 34.0333 34.5572C34.8841 34.2605 36.4154 33.6249 37.3086 33.2012C38.0743 32.8198 38.6273 32.4808 38.8825 32.2689C40.0735 31.1671 38.7974 29.006 37.0534 30.023C36.7557 30.1925 36.3303 30.4468 35.8624 30.701C34.8841 31.2519 33.608 31.8875 32.3744 32.0147C31.0132 32.1418 29.9923 31.5485 29.8222 30.4044C29.652 29.2603 31.1834 25.9974 31.8639 24.5142C32.5445 23.0311 33.3102 21.5056 34.1184 19.8953C34.9266 18.3275 35.9475 16.2511 36.7557 14.6832C37.6064 13.1153 38.3721 11.7169 39.0526 10.3609C39.7332 9.04729 40.3287 7.94554 40.7966 7.01328C41.2645 6.08103 41.5198 5.4454 41.6048 5.1064C41.6899 4.85215 41.6048 4.38602 41.3496 3.96227Z" fill="#FDB933"/>
  <path d="M11.1061 18.9631C11.7441 17.819 12.4247 16.7596 13.1478 15.785C13.871 14.8527 14.5941 14.0476 15.3172 13.4543C16.0403 12.8611 16.7635 12.5221 17.4015 12.4797C18.2097 12.395 18.7201 12.734 18.9754 13.4543C19.188 14.1747 19.188 15.0222 18.8903 16.0392C18.5925 17.0562 18.0821 18.0732 17.2739 19.0902C16.4657 20.1072 15.2321 21.0395 14.3814 21.4632C13.4881 21.887 12.8076 22.1836 11.9568 22.3107C11.1061 22.4379 10.1277 22.4379 9.53223 22.3955C9.9576 21.209 10.468 20.1072 11.1061 18.9631ZM19.7836 30.023C19.5283 30.1925 19.2731 30.4044 17.6993 31.1248C16.9761 31.4638 15.1896 32.057 13.7859 32.1418C12.7225 32.2265 10.5106 32.3537 9.23448 31.1248C8.04345 29.9807 7.95838 28.4128 8.00091 27.8195C8.08599 26.8025 8.17106 26.3788 8.46881 25.3194C9.31955 25.4041 10.3404 25.4041 11.4889 25.2346C12.6374 25.1075 13.9135 24.8109 15.4874 24.1329C16.6358 23.6244 17.7418 22.7345 18.7627 21.7599C19.741 20.7852 20.5067 19.7259 21.1447 18.6241C21.7828 17.48 22.2081 16.3358 22.3783 15.1493C22.591 13.9628 22.5059 12.9458 22.1231 12.0136C21.7828 11.0813 21.1022 10.4033 20.0813 9.85244C19.103 9.34394 17.6993 9.17444 15.9127 9.30156C13.1904 9.55581 10.8509 10.3609 8.89418 11.7593C6.9375 13.1577 5.40618 14.8527 4.25769 16.802C3.53457 18.0732 2.98159 19.3445 2.59876 20.7005C2.13086 20.6157 0.98237 20.8276 0.812224 21.887C0.642077 22.9464 1.57788 23.5396 2.04579 23.6244C1.87564 25.5313 2.00325 27.311 2.55622 28.9213C3.15174 30.7434 4.51291 32.5232 6.04423 33.4554C7.49047 34.3453 10.2554 35.1081 12.0844 35.0657C13.8284 35.0657 15.7851 34.6843 17.1888 34.3029C18.6351 33.9216 21.1022 32.6927 21.485 32.3537C22.9313 31.0824 21.1873 29.1755 19.7836 30.023Z" fill="#FDB933"/>
</svg>
